<svg xmlns="http://www.w3.org/2000/svg" xmlns:xlink="http://www.w3.org/1999/xlink" width="800" height="418" viewBox="0 0 211.667 110.596"><defs><pattern xlink:href="#a" id="b" x="0" y="0" patternTransform="rotate(-135)" preserveAspectRatio="xMidYMid"/><pattern id="a" width="3" height="1" patternTransform="scale(2)" patternUnits="userSpaceOnUse" preserveAspectRatio="xMidYMid" style="fill:#7dc4f4"><path d="M0-.5h1v2H0z" style="stroke:none"/></pattern><pattern xlink:href="#a" id="c" x="0" y="0" patternTransform="rotate(-135)" preserveAspectRatio="xMidYMid"/><pattern xlink:href="#a" id="d" x="0" y="0" patternTransform="rotate(-135)" preserveAspectRatio="xMidYMid"/><pattern xlink:href="#a" id="e" x="0" y="0" patternTransform="rotate(-135)" preserveAspectRatio="xMidYMid"/></defs><path d="M61.913 69.056h211.666v110.596H61.913Z" style="fill:#fff;fill-opacity:1;stroke:none;stroke-width:.793749;stroke-dasharray:none;stroke-dashoffset:4;stroke-opacity:1;paint-order:stroke fill markers" transform="translate(-61.913 -69.056)"/><g transform="translate(494.91 40.103) scale(.43433)"><path d="M-760.87 41.263h.327c28.352-.298 24.224-38.128 24.224-38.128-1.168-25.284-22.323-25.066-24.387-24.985-2.092-.081-23.247-.299-24.388 24.985 0 0-4.1 37.83 24.225 38.128z" style="fill:#fff;stroke:#4ea8f1;stroke-width:1.82752;stroke-dasharray:none"/><path d="M-721.817 53.294c-12.819-4.888-20.504-9.912-20.504-9.912l-9.885 31.23-1.358 4.237-4.427-12.547c10.157-14.176-.76-14.855-2.661-14.882h-.109c-1.9.027-12.818.68-2.661 14.882l-4.427 12.547-1.358-4.237-9.885-31.23s-7.685 5.024-20.504 9.912c-14.094 5.133-13.225 16.756-13.497 38.536h107.36c-2.13-13.87-.412-32.437-16.084-38.536z" style="fill:#fff;fill-opacity:1;stroke:#4ea8f1;stroke-width:1.82752;stroke-dasharray:none"/><text xml:space="preserve" x="-774.975" y="30.783" style="font-style:normal;font-variant:normal;font-weight:400;font-stretch:normal;font-size:58.9831px;line-height:1.25;font-family:Sagar;-inkscape-font-specification:Sagar;fill:#4ea8f1;fill-opacity:1;stroke-width:2.45762"><tspan x="-774.975" y="30.783" style="font-style:normal;font-variant:normal;font-weight:700;font-stretch:normal;font-family:Roboto;-inkscape-font-specification:&quot;Roboto Bold&quot;;fill:#4ea8f1;fill-opacity:1;stroke-width:2.45762">?</tspan></text><path d="M-800.835 55.386c-4.169 2.186-7.474 6.072-8.652 10.663-1.587 5.618-1.137 11.522-1.175 17.29.018 2.384-.08 4.658-.238 7.055 11.475-.012 22.953.024 34.426-.019l3.85-.354c-1.86-1.038-3.712-2.09-5.677-2.917-5.889-2.793-11.345-6.97-14.58-12.728-3.486-5.968-4.51-12.901-6.54-19.413-.138-.657-.97.358-1.406.419z" style="fill:url(#b);fill-opacity:1;stroke:none;stroke-width:.609174px;stroke-linecap:butt;stroke-linejoin:miter;stroke-opacity:1"/><path d="M-783.46-.453c2.944 19.855 9.763 32.4 23.607 40.605-11.672.838-21.401-9.038-22.931-21.25-1.262-6.365-.88-12.899-.676-19.355z" style="fill:url(#c);fill-opacity:1;stroke:none;stroke-width:.609174px;stroke-linecap:butt;stroke-linejoin:miter;stroke-opacity:1"/><path d="M-990.713-20.363c-27.836.019-55.672-.138-83.508.175-2.97.056-6.02.016-8.9.774-1.566 2.21-.864 5.148-1.074 7.69.012 1.43-.497 3.384 1.61 2.719h121.65c-.137-3.21.558-6.71-.91-9.682-.837-1.593-2.65-1.924-4.283-1.696z" style="fill:#7dc4f4;fill-opacity:1;stroke:none;stroke-width:2.84911;stroke-miterlimit:2;stroke-dasharray:none;stroke-dashoffset:9.92504;stroke-opacity:1;paint-order:fill markers stroke"/><circle cx="-1076.794" cy="-14.66" r="2.708" style="fill:#fff;fill-opacity:1;stroke:none;stroke-width:1.10754;stroke-linejoin:miter;stroke-miterlimit:2;stroke-dasharray:none;stroke-dashoffset:0;stroke-opacity:1;paint-order:stroke fill markers"/><circle cx="-1068.266" cy="-14.66" r="2.708" style="fill:#fff;fill-opacity:1;stroke:none;stroke-width:1.10754;stroke-linejoin:miter;stroke-miterlimit:2;stroke-dasharray:none;stroke-dashoffset:0;stroke-opacity:1;paint-order:stroke fill markers"/><path d="m-1086.016-6.666 126.721-.032m-122.118-15.553H-963.9a4.605 4.605 0 0 1 4.605 4.605v105.26a4.605 4.605 0 0 1-4.605 4.605h-117.513a4.605 4.605 0 0 1-4.605-4.604v-105.26a4.605 4.605 0 0 1 4.605-4.606z" style="fill:none;fill-opacity:1;stroke:#4ea8f1;stroke-width:1.84171;stroke-linecap:butt;stroke-linejoin:miter;stroke-dasharray:none;stroke-opacity:1"/><path d="M-1067.244 4.155h89.17a4.605 4.605 0 0 1 4.606 4.605v14.27a4.605 4.605 0 0 1-4.605 4.605h-89.171a4.605 4.605 0 0 1-4.605-4.605V8.76a4.605 4.605 0 0 1 4.605-4.605zM-1067.244 45.15h31.763a4.605 4.605 0 0 1 4.605 4.604v22.603a4.605 4.605 0 0 1-4.605 4.604h-31.759a4.605 4.605 0 0 1-4.605-4.604V49.754a4.605 4.605 0 0 1 4.605-4.605z" style="fill:#fff;fill-opacity:1;stroke:#4ea8f1;stroke-width:2.84911;stroke-linejoin:miter;stroke-miterlimit:2;stroke-dasharray:none;stroke-dashoffset:0;stroke-opacity:1;paint-order:stroke fill markers"/><path d="M-972.333 48.557h-54.145M-972.333 53.076h-54.145M-972.333 57.6h-54.145M-972.333 62.125h-54.145M-972.333 66.647h-54.145M-972.333 71.17h-54.145M-972.333 75.693h-54.145" style="fill:none;stroke:#7dc4f4;stroke-width:1.82752;stroke-linecap:butt;stroke-linejoin:miter;stroke-dasharray:none;stroke-opacity:1"/><path d="M-1072.977 33.99h100.644" style="fill:#7dc4f4;fill-opacity:1;stroke:#7dc4f4;stroke-width:1.82752;stroke-linecap:butt;stroke-linejoin:miter;stroke-dasharray:none;stroke-opacity:1"/><path d="M-1072.977 38.512h100.644" style="fill:none;stroke:#7dc4f4;stroke-width:1.82752;stroke-linecap:butt;stroke-linejoin:miter;stroke-dasharray:none;stroke-opacity:1"/><path d="M-979.116 5.327c-29.547.122-59.11-.071-88.653.145-2.687.35-3.143 3.511-2.87 5.706.213 4.462-.434 9.069.425 13.434 1.687 2.609 5.074 1.653 7.653 1.807 28.354 0 56.707.04 85.061-.064 2.641-.486 3.115-3.557 2.816-5.779-.166-4.455.391-9.037-.384-13.414-.783-1.434-2.51-1.918-4.048-1.835z" style="fill:url(#d);fill-opacity:1;stroke:none;stroke-width:.258461;stroke-miterlimit:2;stroke-dasharray:none;stroke-dashoffset:9.92504;stroke-opacity:1;paint-order:fill markers stroke"/><path d="M-1035.951 46.34c-7.594.066-15.193.015-22.79.036-3.001.027-6.01-.049-9.008.04-1.924.26-3.173 2.323-2.876 4.173.016 7.443-.06 14.891.063 22.33.281 1.952 2.399 3.124 4.25 2.823 10.473-.016 20.952.052 31.42-.056 1.926-.271 3.116-2.374 2.797-4.206-.014-7.418.055-14.84-.06-22.255-.236-1.794-2.061-2.993-3.796-2.885z" style="fill:url(#e);fill-opacity:1;stroke:none;stroke-width:2.84911;stroke-linejoin:miter;stroke-miterlimit:2;stroke-dasharray:none;stroke-dashoffset:0;stroke-opacity:1;paint-order:stroke fill markers"/><text xml:space="preserve" x="-932.35" y="40.83" style="font-weight:700;font-size:19.0395px;line-height:1.25;font-family:&quot;Segoe UI&quot;;-inkscape-font-specification:&quot;Segoe UI, Bold&quot;;fill:#4ea8f1;fill-opacity:1;stroke-width:.79331"><tspan x="-932.35" y="40.83" style="fill:#4ea8f1;fill-opacity:1;stroke-width:.79331">User-Agent</tspan></text><path d="M-951.693 72.438h131.794" style="fill:#7dc4f4;fill-opacity:1;stroke:#7dc4f4;stroke-width:.609174px;stroke-linecap:butt;stroke-linejoin:miter;stroke-opacity:1"/><circle cx="-820.941" cy="72.438" r="2.883" style="fill:#7dc4f4;fill-opacity:1;stroke:none;stroke-width:1.82752;stroke-dasharray:none;stroke-dashoffset:7.19999;stroke-opacity:1"/><path d="M-950.65 54.27h137.459" style="fill:none;stroke:#4ea8f1;stroke-width:.609174px;stroke-linecap:butt;stroke-linejoin:miter;stroke-opacity:1"/><circle cx="-815.256" cy="54.271" r="2.883" style="fill:#4ea8f1;fill-opacity:1;stroke:none;stroke-width:1.82752;stroke-dasharray:none;stroke-dashoffset:7.19999;stroke-opacity:1"/><g transform="translate(21.957 -53.24)"><path d="M-971.527 72.438h151.628" style="fill:none;stroke:#4ea8f1;stroke-width:.609174px;stroke-linecap:butt;stroke-linejoin:miter;stroke-opacity:1"/><circle cx="-819.854" cy="72.438" r="2.883" style="fill:#4ea8f1;fill-opacity:1;stroke:none;stroke-width:1.82752;stroke-dasharray:none;stroke-dashoffset:7.19999;stroke-opacity:1"/></g><path d="M-950.045 1.338h148.716" style="fill:#7dc4f4;fill-opacity:1;stroke:#7dc4f4;stroke-width:.609174px;stroke-linecap:butt;stroke-linejoin:miter;stroke-opacity:1"/><circle cx="-801.284" cy="1.338" r="2.883" style="fill:#7dc4f4;fill-opacity:1;stroke:none;stroke-width:1.82752;stroke-dasharray:none;stroke-dashoffset:7.19999;stroke-opacity:1"/><path d="M-826.776 36.4h34.546" style="fill:#7dc4f4;fill-opacity:1;stroke:#7dc4f4;stroke-width:.609174px;stroke-linecap:butt;stroke-linejoin:miter;stroke-opacity:1"/><circle cx="-792.185" cy="36.4" r="2.883" style="fill:#7dc4f4;fill-opacity:1;stroke:none;stroke-width:1.82752;stroke-dasharray:none;stroke-dashoffset:7.19999;stroke-opacity:1"/><path d="M-950.124 36.4h13.053" style="fill:#7dc4f4;fill-opacity:1;stroke:#7dc4f4;stroke-width:.609174px;stroke-linecap:butt;stroke-linejoin:miter;stroke-opacity:1"/></g></svg>